<?xml version="1.0" encoding="utf-8"?>
<!-- Generator: Adobe Illustrator 19.0.0, SVG Export Plug-In . SVG Version: 6.00 Build 0)  -->
<svg version="1.1" id="Capa_1" xmlns="http://www.w3.org/2000/svg" xmlns:xlink="http://www.w3.org/1999/xlink" x="0px" y="0px"
	 viewBox="-204 359 202.5 75" style="enable-background:new -204 359 202.5 75;" xml:space="preserve">
<style type="text/css">
	.st0{fill:#FFFFFF;}
</style>
<g>
	<g>
		<path class="st0" d="M-174,395h6.6v3.2c0,1-0.1,1.9-0.1,1.9h0.1c1.2-2.3,4.2-5.7,9.8-5.7c6.1,0,9.5,3.2,9.5,10.5v17.7h-6.8v-16.3
			c0-3.3-0.9-5.6-4.4-5.6c-3.7,0-6.4,2.3-7.4,5.6c-0.4,1.1-0.5,2.4-0.5,3.7v12.6h-6.8L-174,395L-174,395z"/>
		<path class="st0" d="M-129.2,394.4c7.9,0,12.2,5.8,12.2,13c0,0.8-0.2,2.6-0.2,2.6h-19c0.4,4.8,4.2,7.3,8.2,7.3c4.4,0,7.9-3,7.9-3
			l2.6,4.9c0,0-4.2,3.9-11,3.9c-9.1,0-14.8-6.6-14.8-14.4C-143.2,400.3-137.4,394.4-129.2,394.4 M-123.9,405.3
			c-0.1-3.7-2.4-5.7-5.4-5.7c-3.5,0-5.9,2.2-6.6,5.7H-123.9z"/>
		<path class="st0" d="M-110.2,400.3h-3.6v-5.4h3.7v-7.3h6.7v7.3h6.3v5.4h-6.3v11.3c0,4.5,3.6,5.2,5.5,5.2c0.7,0,1.2-0.1,1.2-0.1v6
			c0,0-0.8,0.2-2.1,0.2c-3.8,0-11.4-1.1-11.4-10.3L-110.2,400.3L-110.2,400.3z"/>
		<path class="st0" d="M-79.6,394.4c7.9,0,12.2,5.8,12.2,13c0,0.8-0.2,2.6-0.2,2.6h-19c0.4,4.8,4.1,7.3,8.2,7.3c4.4,0,7.9-3,7.9-3
			l2.6,4.9c0,0-4.2,3.9-11,3.9c-9.1,0-14.8-6.6-14.8-14.4C-93.5,400.3-87.8,394.4-79.6,394.4 M-74.3,405.3c-0.1-3.7-2.4-5.7-5.4-5.7
			c-3.5,0-5.9,2.2-6.6,5.7H-74.3z"/>
		<path class="st0" d="M-61,387.5h6.8v25.4c0,3,1,3.8,2.8,3.8c0.5,0,1-0.1,1-0.1v6c0,0-1,0.2-2.1,0.2c-3.8,0-8.5-1-8.5-8.8
			L-61,387.5L-61,387.5z"/>
		<rect x="-44" y="394.8" class="st0" width="6.8" height="27.7"/>
		<path class="st0" d="M-29.8,394.8h6.3v2.2c0,1-0.1,1.9-0.1,1.9h0.1c0,0,2.4-4.5,8.8-4.5c7.4,0,12.2,5.9,12.2,14.4
			c0,8.7-5.3,14.4-12.6,14.4c-5.4,0-7.9-3.8-7.9-3.8h-0.1c0,0,0.1,1,0.1,2.4v11.5h-6.9L-29.8,394.8L-29.8,394.8z M-16.4,417.4
			c3.8,0,6.9-3.1,6.9-8.5c0-5.2-2.8-8.6-6.8-8.6c-3.6,0-6.9,2.6-6.9,8.7C-23.2,413.2-20.9,417.4-16.4,417.4"/>
		<rect x="-44" y="387.5" class="st0" width="6.8" height="5.5"/>
	</g>
</g>
<g>
	<g>
		<g>
			<defs>
				<rect id="SVGID_1_" x="-245.9" y="339.7" width="28.3" height="34.8"/>
			</defs>
			<use xlink:href="#SVGID_1_"  style="overflow:visible;fill:#FFFFFF;"/>
			<clipPath id="SVGID_2_">
				<use xlink:href="#SVGID_1_"  style="overflow:visible;"/>
			</clipPath>
		</g>
	</g>
</g>
<g>
	<g>
		<path id="SVGID_5_" class="st0" d="M-174.6,373.5c-0.2-7.8-6.7-14-14.5-13.8c-7.8,0.2-13.7,6.7-13.8,14.5c0,6.3,4.4,9.5,7.9,12.3
			c3.3,2.6,11,8,11,8v-7.4C-178.4,385.2-174.5,379.8-174.6,373.5 M-188.5,382.3c-4.8,0.1-8.8-3.6-8.9-8.4c-0.1-4.8,3.6-8.7,8.4-8.9
			c4.8-0.1,8.8,3.6,8.9,8.4C-180,378.2-183.8,382.1-188.5,382.3"/>
	</g>
</g>
</svg>
